<svg width="64" height="64" viewBox="0 0 64 64" fill="none" xmlns="http://www.w3.org/2000/svg">
  <circle cx="32" cy="32" r="32" fill="#2775CA"/>
  <circle cx="32" cy="32" r="20" stroke="white" stroke-width="4"/>
  <path d="M36.8 24.9C35.5 23.7 33.7 23 31.7 23C28 23 25 25.4 25 28.5C25 31.3 27.3 32.9 30.7 33.7L33.1 34.2C34.9 34.6 36 35.2 36 36.5C36 38 34.3 39.1 31.9 39.1C29.9 39.1 28 38.3 26.7 37L24.3 40C26.2 41.8 28.8 42.9 31.6 43V46H33.9V42.8C37.9 42.2 40.7 39.7 40.7 36.1C40.7 33 38.4 31.2 34.8 30.4L32.4 29.9C30.6 29.5 29.7 29 29.7 27.8C29.7 26.5 31.1 25.6 33 25.6C34.7 25.6 36.1 26.1 37.3 27.1L36.8 24.9Z" fill="white"/>
  <path d="M19 20.5C15.9 23.4 14 27.5 14 32C14 36.5 15.9 40.6 19 43.5" stroke="white" stroke-width="3" stroke-linecap="round"/>
  <path d="M45 20.5C48.1 23.4 50 27.5 50 32C50 36.5 48.1 40.6 45 43.5" stroke="white" stroke-width="3" stroke-linecap="round"/>
</svg>
